<svg width="1024" height="1024" viewBox="0 0 1024 1024" fill="none" xmlns="http://www.w3.org/2000/svg">
<path d="M532.482 59.4617C542.423 51.8952 553.963 49.1304 565.201 50.2332C563.157 50.336 561.113 50.5677 559.082 50.9324C549.367 52.6774 540.418 57.3542 533.438 64.3338C526.459 71.3134 521.782 80.2621 520.037 89.9774C518.292 99.6928 519.562 109.71 523.677 118.682L609.969 303.532L523.677 488.381C519.562 497.353 518.292 507.37 520.037 517.086C521.782 526.801 526.459 535.75 533.438 542.729C540.418 549.709 549.367 554.386 559.082 556.131C568.797 557.876 578.814 556.605 587.786 552.49L772.656 466.221L856.055 505.147C881.898 556.136 898.67 604.009 898.67 647.162C898.67 796.287 796.497 887.967 710.281 933.13C689.489 944.058 670.244 918.914 681.075 898.122C700.755 860.164 718.163 813.017 718.163 768.048C718.163 732.289 700.61 704.268 664.489 670.082C655.254 661.33 640.747 661.475 632.721 671.34C617.826 689.763 495.198 765.651 480.305 784.51C478.334 787.061 475.773 789.096 472.843 790.44C469.912 791.784 466.7 792.397 463.48 792.225C460.261 792.054 457.131 791.104 454.359 789.457C451.588 787.81 449.258 785.514 447.569 782.768C399.892 709.27 463.577 507.127 461.015 437.013C460.241 415.834 435.483 405.486 421.315 421.153C359.228 489.865 279.734 601.225 279.733 695.564C279.733 783.328 328.959 876.652 371.511 937.82C383.986 955.76 370.301 980.082 349.412 973.602C251.591 943.187 125 852.91 125 647.162C125 423.668 369.528 183.636 532.482 59.4617Z" fill="url(#paint0_linear_152_2)"/>
<defs>
<linearGradient id="paint0_linear_152_2" x1="511.835" y1="-57.7548" x2="511.835" y2="1022.85" gradientUnits="userSpaceOnUse">
<stop stop-color="#740E00"/>
<stop offset="0.230769" stop-color="#952906"/>
<stop offset="0.762879" stop-color="#B5440B"/>
<stop offset="1" stop-color="#F5CF51"/>
</linearGradient>
</defs>
</svg>
